<?xml version="1.0" encoding="UTF-8" standalone="no"?>
<!-- Created with Inkscape (http://www.inkscape.org/) -->

<svg
   width="49.276188mm"
   height="30.762575mm"
   viewBox="0 0 49.276188 30.762575"
   version="1.1"
   id="svg36286"
   xmlns="http://www.w3.org/2000/svg"
   xmlns:svg="http://www.w3.org/2000/svg">
  <defs
     id="defs36283" />
  <g
     id="layer1"
     transform="translate(-0.70152368,-1.0184077)">
    <g
       id="g38913"
       transform="matrix(1.2124833,0,0,1.2124833,-61.872278,-29.684939)">
      <path
         style="fill:none;fill-rule:evenodd;stroke:#3cc26b;stroke-width:0.950942;stroke-linecap:round;stroke-linejoin:round;stroke-dasharray:none"
         d="m 65.304512,32.870076 c -0.315217,1.073964 -0.564364,2.166819 -0.931497,3.225386"
         id="path37362" />
      <path
         style="fill:#faff7d;fill-opacity:1;fill-rule:evenodd;stroke:#3cc26b;stroke-width:0.323025;stroke-linecap:round;stroke-linejoin:round;stroke-dasharray:none"
         d="m 68.967728,28.622735 c 0.586097,0.990957 -0.942549,0.601724 -1.284439,1.286318 -0.466617,0.934345 -0.194811,2.802917 -1.5775,2.769493 -1.295065,-0.03131 -2.606879,-0.985884 -1.886619,-2.343321 0.44949,-0.847131 -0.590172,-1.400363 -0.52063,-2.288781 0.127054,-1.623157 1.18805,0.09275 1.953258,0.4042 1.043614,0.424765 2.151765,0.613152 3.202494,0.125982 0,0 0.113428,0.04613 0.113428,0.04613 0,0 8e-6,-2.1e-5 8e-6,-2.1e-5 z"
         id="path37366" />
      <path
         style="fill:none;fill-rule:evenodd;stroke:#3cc26b;stroke-width:0.323025;stroke-linecap:round;stroke-linejoin:round;stroke-dasharray:none"
         d="m 63.875367,27.2753 c 0.663973,-0.598896 1.522561,-0.450003 2.302843,-0.250374 0.728576,0.1864 1.666839,0.202103 2.07345,0.840001 0.181621,0.28493 0.692906,0.412776 0.680018,0.790284"
         id="path37370" />
      <path
         style="fill:#f9ff58;fill-opacity:1;fill-rule:evenodd;stroke:#e0d945;stroke-width:0.600001;stroke-linecap:round;stroke-linejoin:round;stroke-dasharray:none;stroke-opacity:1"
         d="m 66.212329,27.836431 c 0.05191,0.03512 0.178788,0.156362 0.04762,0.05757 -0.174836,-0.131683 0.108584,0.04272 0.160231,0.07511 0.03275,0.02054 0.06542,0.04122 0.09804,0.06198"
         id="path38212" />
    </g>
    <g
       id="g37348"
       transform="matrix(1.2124833,0,0,1.2124833,-168.58847,-1.0747021)">
      <path
         style="fill:#94f0b2;fill-opacity:1;fill-rule:evenodd;stroke:#3cc26b;stroke-width:0.422541;stroke-linecap:round;stroke-linejoin:round"
         d="m 146.39238,3.8538782 c -1.9248,-0.3659198 -3.03114,1.3997053 -3.16404,3.1273524 -0.10421,1.3547247 0.96033,2.7177393 2.27379,2.8634846 1.21277,0.1345724 2.88484,0.6538338 3.77403,-0.3130237 0.96521,-1.0495137 1.62768,-2.9602687 0.63791,-4.1094446 -0.84396,-0.9798799 -2.19891,-1.1265733 -3.30807,-1.3926152 0,0 -0.21362,-0.1757535 -0.21362,-0.1757535 z"
         id="path36945" />
      <path
         style="fill:#94f0b2;fill-opacity:1;fill-rule:evenodd;stroke:#3cc26b;stroke-width:0.409843;stroke-linecap:round;stroke-linejoin:round"
         d="m 144.36458,8.9779392 c -1.67571,-0.228959 -3.3592,-0.088996 -3.56737,2.2009098 -0.26562,2.921906 -2.2064,7.242807 0.28929,8.756853 1.64584,0.998474 3.9505,-0.09884 5.85898,-0.03178 2.47536,0.08699 2.10773,-3.93166 2.46372,-5.812932 0.43539,-2.300903 -0.97253,-3.550771 -3.12884,-4.2271253 -0.67128,-0.2105559 -1.37299,-0.4139124 -1.91578,-0.8859295 z"
         id="path36949" />
      <path
         style="fill:#94f0b2;fill-opacity:1;fill-rule:evenodd;stroke:#3cc26b;stroke-width:0.494421;stroke-linecap:round;stroke-linejoin:round"
         d="m 144.56728,19.33511 c -1.18681,-0.02577 -1.08973,0.952455 -1.32504,1.964918 -0.34551,1.486586 -0.39574,3.083746 -0.0243,4.567577 0.29118,1.163068 2.59025,1.298286 3.06491,0.382 0.78742,-1.520036 0.24568,-3.352773 0.3866,-5.007637 0.11332,-1.330731 -0.58662,-2.532095 -2.10221,-1.906858 z"
         id="path36957" />
      <path
         style="fill:#94f0b2;fill-opacity:1;fill-rule:evenodd;stroke:#3cc26b;stroke-width:0.42623;stroke-linecap:round;stroke-linejoin:round"
         d="m 151.9521,13.77421 c -1.26046,0.42602 -2.63021,2.224913 -3.71927,1.716864 -1.25872,-0.587198 -0.93535,-2.094428 0.15926,-2.756796 1.48672,-0.899637 3.34246,-1.882761 5.01412,-1.344678 1.65887,0.533966 -0.91642,1.982606 -1.45411,2.38461 z"
         id="path37075" />
    </g>
    <path
       style="fill:none;fill-opacity:1;fill-rule:evenodd;stroke:#000000;stroke-width:0.363745;stroke-linecap:round;stroke-linejoin:round;stroke-dasharray:none;stroke-opacity:1"
       d="m 22.960921,4.0325476 c -0.197492,0.53995 0.04101,1.1721516 0.234367,1.700387 0.15121,0.4130825 -0.04974,0.7003345 -0.301804,0.9970136"
       id="path38928" />
    <path
       style="fill:none;fill-opacity:1;fill-rule:evenodd;stroke:#000000;stroke-width:0.363745;stroke-linecap:round;stroke-linejoin:round;stroke-dasharray:none;stroke-opacity:1"
       d="m 23.937755,4.5045929 c 0.29692,0.6571443 0.86863,1.3564484 0.638864,2.1008129 -0.08508,0.2756372 -0.320043,0.4736804 -0.571424,0.5965876"
       id="path38932" />
    <path
       style="fill:none;fill-opacity:1;fill-rule:evenodd;stroke:#000000;stroke-width:0.363745;stroke-linecap:round;stroke-linejoin:round;stroke-dasharray:none;stroke-opacity:1"
       d="M 13.8572,1.2002802 C 13.421013,1.7783806 13.450434,2.537423 13.45259,3.2233291"
       id="path38936" />
    <path
       style="fill:none;fill-opacity:1;fill-rule:evenodd;stroke:#000000;stroke-width:0.363745;stroke-linecap:round;stroke-linejoin:round;stroke-dasharray:none;stroke-opacity:1"
       d="m 15.812814,1.3351496 c -0.54071,0.2910652 -0.831222,0.878033 -0.866392,1.4874994 -0.01029,0.1783145 -0.01014,0.3570043 -0.01026,0.5355483"
       id="path38940" />
    <path
       style="fill:#94f0b2;fill-opacity:1;fill-rule:evenodd;stroke:#3cc26b;stroke-width:0.363745;stroke-linecap:round;stroke-linejoin:round;stroke-dasharray:none;stroke-opacity:1"
       d="m 32.488591,8.6576306 c -0.698901,1.8304274 0.18214,3.5244364 2.297539,3.1440324 1.757831,-0.316104 4.37625,0.519577 5.418973,-1.271967 0.953056,-1.6374827 -0.0061,-3.7483286 -2.148062,-4.1910019 -1.741689,-0.3599459 -4.044848,-0.8581546 -5.292907,0.4958243 -0.461698,0.5008812 -0.25134,1.2175195 -0.275543,1.8231122 z"
       id="path38948" />
    <path
       style="fill:#94f0b2;fill-opacity:1;fill-rule:evenodd;stroke:#3cc26b;stroke-width:0.363745;stroke-linecap:round;stroke-linejoin:round;stroke-dasharray:none;stroke-opacity:1"
       d="m 30.378767,13.203704 c 0.748884,-2.836065 4.938407,-1.019252 7.148116,-1.449853 2.645783,-0.515578 5.034383,0.362125 4.787887,3.877517 -0.163751,2.335327 1.936613,5.85633 -0.06744,7.013238 -2.397875,1.384255 -5.442515,0.634396 -8.125917,0.775507 -2.80461,0.147485 -3.461212,-3.343686 -3.502762,-5.524991 -0.02975,-1.561914 -0.486052,-3.139203 -0.239884,-4.691418 z"
       id="path38960" />
    <path
       style="fill:#94f0b2;fill-opacity:1;fill-rule:evenodd;stroke:#3cc26b;stroke-width:0.338709;stroke-linecap:round;stroke-linejoin:round;stroke-dasharray:none;stroke-opacity:1"
       d="m 42.368179,12.727514 c 1.519663,-0.7856 2.533723,-2.7441951 4.159142,-3.0026795 1.766515,-0.2809224 2.676117,1.7679715 0.845112,3.2845155 -1.645479,1.362881 -3.564615,2.341568 -5.612907,2.837447 -2.24332,0.543094 -2.543533,-1.549532 -0.236698,-2.973517 0.252405,-0.155807 0.542264,-0.194109 0.845351,-0.145766 z"
       id="path38964" />
    <path
       style="fill:#94f0b2;fill-opacity:1;fill-rule:evenodd;stroke:#3cc26b;stroke-width:0.387815;stroke-linecap:round;stroke-linejoin:round;stroke-dasharray:none;stroke-opacity:1"
       d="m 29.119657,11.532044 c -1.149363,-1.07517 -1.91193,-3.0310523 -3.513354,-3.0355672 -2.489229,-0.00702 -2.255478,2.5585822 -0.124819,3.6393732 1.874645,0.950926 4.97573,5.389017 5.558244,3.120503 0.424987,-1.655048 0.107822,-3.542914 -1.920071,-3.724309 z"
       id="path38968" />
    <path
       style="fill:#94f0b2;fill-opacity:1;fill-rule:evenodd;stroke:#3cc26b;stroke-width:0.363745;stroke-linecap:round;stroke-linejoin:round;stroke-dasharray:none;stroke-opacity:1"
       d="m 39.118626,22.856742 c 0.717532,2.153655 0.889983,5.881504 3.194732,6.027001 1.669198,0.105375 2.403976,-1.447244 1.634573,-3.211733 -0.704983,-1.616753 -1.860264,-4.521901 -3.467285,-4.162684 -0.663151,0.148234 -1.379373,0.575476 -1.36202,1.347416 z"
       id="path38976" />
    <path
       style="fill:#94f0b2;fill-opacity:1;fill-rule:evenodd;stroke:#3cc26b;stroke-width:0.363745;stroke-linecap:round;stroke-linejoin:round;stroke-dasharray:none;stroke-opacity:1"
       d="m 32.066368,27.974434 c -1.283994,1.51376 -3.031515,0.04635 -2.550798,-1.963626 0.322272,-1.347481 1.956505,-2.491764 1.893555,-3.633278 -0.102382,-1.856562 2.583617,-0.715505 2.572366,0.964404 -0.01142,1.705254 -0.891241,3.317067 -1.915123,4.6325 z"
       id="path38976-3" />
    <path
       style="fill:#e6f094;fill-opacity:1;fill-rule:evenodd;stroke:#3cc26b;stroke-width:0.363745;stroke-linecap:round;stroke-linejoin:round;stroke-dasharray:none;stroke-opacity:1"
       d="m 43.365711,3.3122005 c -0.352909,-0.015696 -0.691047,0.030111 -1.03108,0.1836452 -0.235725,0.1064361 -0.985572,0.4577884 -0.397195,0.6016328 0.427517,0.104518 0.964543,0.2508845 1.332907,-0.022331 0.246432,-0.182779 0.155414,-0.513426 0.09537,-0.7629467 z"
       id="path41023" />
    <path
       style="fill:#e6f094;fill-opacity:1;fill-rule:evenodd;stroke:#3cc26b;stroke-width:0.363745;stroke-linecap:round;stroke-linejoin:round;stroke-dasharray:none;stroke-opacity:1"
       d="m 43.461076,3.359885 c 0.338734,-0.4694846 0.950068,-2.1283423 1.127949,-1.6118453 0.215007,0.6242949 1.968149,0.9251777 1.572322,1.0612538 -0.687652,0.2363986 -1.031932,1.8872892 -1.36513,1.3612153 -0.284262,-0.4488104 -1.458371,-0.2451774 -0.618757,0.2888165 0.385313,0.2450589 1.392937,-0.225326 0.52339,-0.4318688"
       id="path41027" />
    <path
       style="fill:#e6f094;fill-opacity:1;fill-rule:evenodd;stroke:#3cc26b;stroke-width:0.363745;stroke-linecap:round;stroke-linejoin:round;stroke-dasharray:none;stroke-opacity:1"
       d="m 48.134084,4.3612422 c -0.285727,0.4746209 -0.555755,0.9753168 -1.001358,1.3828299 -0.393054,0.3594556 0.178831,-0.00707 -0.197182,-0.019067 -0.426475,-0.013605 -1.619458,-0.2844342 -1.392596,0.00828 0.326208,0.4208959 0.93532,0.4417499 1.303679,0.058478"
       id="path41031" />
    <path
       style="fill:#e6f094;fill-opacity:1;fill-rule:evenodd;stroke:#3cc26b;stroke-width:0.363745;stroke-linecap:round;stroke-linejoin:round;stroke-dasharray:none;stroke-opacity:1"
       d="m 49.469226,5.4579672 c -0.519178,0.511181 0.887438,-0.6159129 0.05849,-0.1480815 -0.678919,0.3831584 -0.924125,1.5615652 -1.697687,1.5382025 -0.362718,-0.010955 -1.902888,-0.020231 -1.330545,0.3557569 0.585079,0.3843547 1.183935,-0.3303246 1.825336,-0.3630407"
       id="path41035" />
  </g>
</svg>
