<?xml version="1.0" encoding="UTF-8" standalone="no"?>
<!-- Created with Inkscape (http://www.inkscape.org/) -->

<svg
   width="51.754932mm"
   height="27.755569mm"
   viewBox="0 0 51.754932 27.755569"
   version="1.1"
   id="svg17849"
   xmlns="http://www.w3.org/2000/svg"
   xmlns:svg="http://www.w3.org/2000/svg">
  <defs
     id="defs17846" />
  <g
     id="layer1"
     transform="translate(-4.5224138,-2.4185828)">
    <path
       style="fill:#94f0b2;stroke:#3cc26b;stroke-width:1.2;stroke-linecap:round;stroke-linejoin:round"
       d="M 11.719545,3.0675314 C 9.7841026,2.6715195 8.5171676,4.5900989 8.4309182,6.5435157 c -0.08645,1.9579547 0.8722264,4.2432513 2.8570538,4.5355163 2.111405,0.310904 5.493878,0.87243 6.463758,-1.3489026 1.192697,-2.7316542 -1.293314,-6.2723024 -4.301784,-5.954706 0,0 -0.213381,-0.1334349 -0.213381,-0.1334349 0,0 -0.258546,-0.023874 -0.258546,-0.023874"
       id="path18003" />
    <path
       style="fill:#95f0b2;fill-opacity:1;stroke:#3cc26b;stroke-width:1.2;stroke-linecap:round;stroke-linejoin:round"
       d="M 9.9891403,11.247615 C 6.6381215,11.993661 5.899018,15.726522 5.4684346,18.575491 5.2134541,20.262578 4.9542671,22.070611 5.2698583,23.753707"
       id="path18011" />
    <path
       style="fill:#95f0b2;fill-opacity:1;stroke:#3cc26b;stroke-width:1.2;stroke-linecap:round;stroke-linejoin:round"
       d="m 16.124203,11.640889 c 2.345746,0.882292 4.177878,3.297494 4.268068,5.562967 0.09505,2.387534 0.769684,4.703715 0.608518,7.100433"
       id="path18015" />
    <path
       style="fill:#94f0b2;stroke:#3cc26b;stroke-width:1.2;stroke-linecap:round;stroke-linejoin:round"
       d="m 5.1912083,23.98967 c 4.9909217,0.01167 10.1614537,-1.289547 14.9813827,0.0024 0.321002,0.08604 0.717191,0.155694 0.906856,0.469489"
       id="path18019" />
    <path
       style="fill:#94f0b2;stroke:#3cc26b;stroke-width:1.2;stroke-linecap:round;stroke-linejoin:round"
       d="m 20.528865,14.865731 c 1.742906,-1.248983 3.868021,-1.832155 5.945623,-2.093766 0.272372,-0.0343 0.558629,-7.29e-4 0.818677,-0.108565"
       id="path18023" />
    <path
       style="fill:#94f0b2;stroke:#3cc26b;stroke-width:1.2;stroke-linecap:round;stroke-linejoin:round"
       d="m 36.259797,3.8540784 c 0.550558,1.5709045 -0.444543,5.043519 0.89697,5.0846489 2.610164,0.080026 7.464816,2.5284607 7.833697,-0.050751 0.228274,-1.59609 0.816603,-5.0652564 -0.583163,-5.0435594 -2.345819,0.036361 -4.664995,-0.066941 -7.035475,0.045835 -0.370918,0.017646 -0.742802,0.00122 -1.112029,-0.036173 z"
       id="path18027" />
    <path
       style="fill:#94f0b2;stroke:#3cc26b;stroke-width:1.2;stroke-linecap:round;stroke-linejoin:round"
       d="m 36.338452,8.6520124 c -2.83412,-0.3744564 -4.578469,-0.4008005 -3.483698,3.0218106 0.853776,2.669181 -2.482988,8.274906 1.787925,8.134344 3.941143,-0.129709 7.874553,-0.0072 11.763571,0.56339 2.430212,0.356555 0.713828,-4.796629 1.478859,-6.882178 0.875064,-2.38551 0.05337,-3.9633601 -2.688703,-3.194819 0,0 -0.835181,0.0092 -0.835181,0.0092"
       id="path18039" />
    <path
       style="fill:#94f0b2;stroke:#3cc26b;stroke-width:1.2;stroke-linecap:round;stroke-linejoin:round"
       d="m 34.214776,19.899627 c -0.0056,1.861016 0.947001,3.989805 0,5.584481 -1.158581,1.95096 2.252187,0.813866 3.286599,1.127159 2.820734,0.854319 1.402232,-2.792325 1.379013,-4.292656 -0.01037,-0.670267 -0.10637,-1.3829 0.132327,-2.025715"
       id="path18043" />
    <path
       style="fill:#94f0b2;stroke:#3cc26b;stroke-width:1.2;stroke-linecap:round;stroke-linejoin:round"
       d="m 41.922933,20.371557 c 0.158424,1.85741 0.300854,3.589457 -0.13826,5.493149 -0.512281,2.220894 2.267602,1.217438 3.577946,1.349801 0.686007,0.0693 2.077141,0.81565 2.06614,0.157308 -0.0296,-1.771603 0.222352,-3.680696 -0.338922,-5.362075 -0.09145,-0.273949 -0.132399,-0.563339 -0.133005,-0.851643"
       id="path18047" />
    <path
       style="fill:#94f0b2;stroke:#3cc26b;stroke-width:1.2;stroke-linecap:round;stroke-linejoin:round"
       d="m 48.372615,11.483581 c 2.315198,0.293762 6.887784,-2.1692498 7.000266,0.15731 0.08368,1.730796 0.958457,5.617159 -0.707893,5.191207 -1.741736,-0.445222 -3.588816,-0.767901 -5.368923,-1.201842 -0.327896,-0.07993 -0.663686,-0.135945 -1.002103,-0.135286"
       id="path18051" />
    <path
       style="fill:#94f0b2;stroke:#3cc26b;stroke-width:1.2;stroke-linecap:round;stroke-linejoin:round"
       d="m 32.327064,9.6745224 c -1.838524,0.9904866 -6.520997,0.7710906 -5.663136,2.6742596 0.583458,1.294404 1.756416,4.60403 2.518226,3.90705 1.093888,-1.000799 2.520701,-1.388828 3.695492,-2.176649"
       id="path18055" />
    <path
       style="fill:#94f0b2;stroke:#3cc26b;stroke-width:1.2;stroke-linecap:round;stroke-linejoin:round"
       d="m 10.067796,24.382944 c -0.0266,1.279645 0.323474,2.597826 0.371091,3.946393 0.01464,0.414766 0.02216,0.829788 0.02218,1.244814"
       id="path18059" />
    <path
       style="fill:#94f0b2;stroke:#3cc26b;stroke-width:1.2;stroke-linecap:round;stroke-linejoin:round"
       d="m 16.596133,24.146981 c -0.05073,1.668274 0.470658,3.290241 0.471927,4.955243"
       id="path18063" />
  </g>
</svg>
