<?xml version="1.0" encoding="UTF-8" standalone="no"?>
<!-- Created with Inkscape (http://www.inkscape.org/) -->

<svg
   width="30.233837mm"
   height="35.328655mm"
   viewBox="0 0 30.233837 35.328655"
   version="1.1"
   id="svg18864"
   xmlns="http://www.w3.org/2000/svg"
   xmlns:svg="http://www.w3.org/2000/svg">
  <defs
     id="defs18861">
    <linearGradient
       id="linearGradient31215">
      <stop
         style="stop-color:#04dd10;stop-opacity:1;"
         offset="0"
         id="stop31213" />
    </linearGradient>
  </defs>
  <g
     id="layer1"
     transform="translate(-0.76380934,-1.0703851)">
    <g
       id="g30433"
       style="fill:#94f0b2;fill-opacity:1;fill-rule:evenodd;stroke:#3cc26b;stroke-opacity:1"
       transform="matrix(0.97894787,-0.15632429,0.19136158,1.1983613,-26.073492,-2.4753458)">
      <path
         style="fill:#94f0b2;fill-opacity:1;fill-rule:evenodd;stroke:#3cc26b;stroke-width:1.2;stroke-linecap:round;stroke-linejoin:round;stroke-opacity:1"
         d="m 40.383228,15.366442 c -2.189163,-1.042791 -1.649056,-3.404086 -0.394343,-5.062703 1.172118,-1.5494347 3.863695,-1.1876594 5.514767,-0.6017256 2.172863,0.7711076 2.648428,4.5586396 0.02486,5.2069216 -0.875311,0.216289 -2.628032,1.404407 -3.933559,0.913315 -0.403909,-0.151936 -0.807819,-0.303872 -1.211728,-0.455808 z"
         id="path21272" />
    </g>
    <path
       style="fill:#94f0b2;fill-opacity:1;stroke:#3cc26b;stroke-width:1.22586;stroke-linecap:round;stroke-linejoin:round"
       d="m 23.584035,7.4949988 c 4.512396,1.2447343 5.004201,7.2460312 6.038347,11.2929102 1.02315,4.003847 1.985418,6.498405 -4.146943,8.403924 -4.095492,1.272599 -8.83884,0.20357 -9.80691,-5.076765 -0.657345,-3.585488 0.917373,-6.998278 2.159832,-10.055247 0.790558,-1.945103 3.750154,-3.7622895 5.755674,-4.5648222 z"
       id="path21112" />
    <path
       style="fill:#94f0b2;fill-opacity:1;stroke:#3cc26b;stroke-width:1.25545;stroke-linecap:round;stroke-linejoin:round"
       d="m 21.58268,29.173214 c -0.149908,2.101302 -1.297103,6.833741 0.580693,6.531849 1.573162,-0.252916 4.998907,0.612148 4.988353,-0.605325 -0.02133,-2.460128 0.184549,-5.013051 -0.190597,-7.442747 -0.411442,-2.664774 -4.341815,-2.971385 -5.16941,-0.324508 -0.185863,0.594441 -0.199903,1.223704 -0.209039,1.840731 z"
       id="path21120" />
    <path
       style="fill:none;fill-opacity:1;stroke:#3cc26b;stroke-width:1.43305;stroke-linecap:round;stroke-linejoin:round"
       d="m 9.1733248,13.073068 c 1.7568972,2.581651 3.0472512,5.437603 4.4840252,8.199867"
       id="path21240" />
    <path
       style="fill:#94f0b2;fill-opacity:1;stroke:#3cc26b;stroke-width:1.3658;stroke-linecap:round;stroke-linejoin:round;stroke-dasharray:none"
       d="m 10.067047,17.601807 c 0.01414,-2.260283 3.454713,-2.465945 5.220615,-2.938911 1.57538,-0.421938 2.882341,-1.789158 3.875386,0.511114 1.127272,2.611193 -2.702183,3.344803 -4.4823,3.266784 -1.447025,-0.06342 -3.626065,0.371648 -4.613701,-0.838987 z"
       id="path21232" />
    <path
       style="fill:#ffee00;fill-opacity:1;stroke:#3cc26b;stroke-width:0.835947;stroke-linecap:round;stroke-linejoin:round;stroke-dasharray:none"
       d="m 7.0922485,10.359465 c -0.5582182,0.181906 -0.3834946,1.167934 0.032171,1.398353 0.5991903,0.332154 1.156151,-0.346995 1.049453,-1.025983 -0.1087185,-0.691846 -0.6122587,-0.269487 -1.0816236,-0.37237 z"
       id="path21375" />
    <path
       style="fill:#ffee00;fill-opacity:1;stroke:#3cc26b;stroke-width:0.835947;stroke-linecap:round;stroke-linejoin:round;stroke-dasharray:none"
       d="M 6.3721219,11.557213 C 6.0694221,12.59378 4.9803005,13.221049 4.1975766,13.934674 3.2931476,14.75926 0.31889267,14.326052 1.410569,12.856719 2.5732822,11.291775 4.8096921,12.221546 6.3721219,11.557213 Z"
       id="path21395" />
    <path
       style="fill:#ffee00;fill-opacity:1;stroke:#3cc26b;stroke-width:0.835947;stroke-linecap:round;stroke-linejoin:round;stroke-dasharray:none"
       d="M 6.6448352,11.507933 C 5.6954937,11.079102 4.1239378,10.715337 3.5343484,10.266148 2.7144142,9.6414669 0.33223607,8.7298512 1.48501,7.6151019 c 1.5040854,-1.4544727 3.8306336,0.27547 4.7650079,1.6343747 0.4813384,0.7000332 0.93377,1.4446124 0.3948173,2.2584564 z"
       id="path21399" />
    <path
       style="fill:#ffee00;fill-opacity:1;stroke:#3cc26b;stroke-width:0.835947;stroke-linecap:round;stroke-linejoin:round;stroke-dasharray:none"
       d="M 7.2161444,10.741479 C 6.7635558,9.6102843 6.2191846,8.6755654 5.8283461,7.352617 5.3987801,5.8985798 6.589227,4.7977381 7.8509659,5.9947861 9.2049957,7.2793932 8.3323729,9.6066144 7.2161444,10.741479 Z"
       id="path21403" />
    <path
       style="fill:#ffee00;fill-opacity:1;stroke:#3cc26b;stroke-width:0.835947;stroke-linecap:round;stroke-linejoin:round;stroke-dasharray:none"
       d="m 7.1317086,11.727304 c -1.1145522,0.755944 -2.094085,2.221568 -1.471495,3.521603 0.6018997,1.256831 2.6318173,0.844844 2.8259415,-0.377984 C 8.6757413,13.676681 7.871701,12.576217 7.1317086,11.727304 Z"
       id="path21407" />
    <path
       style="fill:#ffee00;fill-opacity:1;stroke:#3cc26b;stroke-width:0.835947;stroke-linecap:round;stroke-linejoin:round;stroke-dasharray:none"
       d="m 7.7683616,11.660793 c 0.6623683,0.632436 1.4248903,1.080162 2.4772874,1.185458 1.086928,0.108751 1.822891,-1.414341 0.914006,-1.804846 -0.798778,-0.343197 -2.1237519,-0.830364 -2.8215994,-0.194416 -0.2472735,0.22534 -0.4083226,0.525624 -0.569694,0.813804 z"
       id="path21411" />
    <path
       style="fill:#ffee00;fill-opacity:1;stroke:#3cc26b;stroke-width:0.835947;stroke-linecap:round;stroke-linejoin:round;stroke-dasharray:none"
       d="M 8.6670608,9.9454949 C 9.5644472,9.9911704 10.453727,9.7435317 11.273383,9.4126797 11.973751,9.1299782 11.317034,7.7137269 10.678409,7.8484775 9.7855996,8.0368613 8.9451545,8.5813676 8.730916,9.5645046 8.7034872,9.6903749 8.6829514,9.8177631 8.6670608,9.9454949 Z"
       id="path21415" />
  </g>
</svg>
